<svg xmlns="http://www.w3.org/2000/svg" width="123.932" height="102.801" viewBox="0 0 123.932 102.801">
  <g id="piramides" transform="translate(0 -43.648)">
    <g id="Grupo_735915" data-name="Grupo 735915" transform="translate(1.816 45.141)">
      <g id="Grupo_735901" data-name="Grupo 735901" transform="translate(51.86 0)">
        <g id="Grupo_735900" data-name="Grupo 735900">
          <circle id="Elipse_4830" data-name="Elipse 4830" cx="24.046" cy="24.046" r="24.046" fill="#fcb44d"/>
          <path id="Trazado_509880" data-name="Trazado 509880" d="M333.338,73.859a24.064,24.064,0,0,1-27.815,23.752,24.049,24.049,0,0,0,0-47.5,24.064,24.064,0,0,1,27.815,23.751Z" transform="translate(-285.246 -49.814)" fill="#fb9927"/>
        </g>
      </g>
      <g id="Grupo_735906" data-name="Grupo 735906" transform="translate(5.152 14.825)">
        <g id="Grupo_735903" data-name="Grupo 735903" transform="translate(34.078 4.07)">
          <g id="Grupo_735902" data-name="Grupo 735902">
            <path id="Trazado_509881" data-name="Trazado 509881" d="M169.572,177l34.691-49.123L238.954,177Z" transform="translate(-169.572 -127.876)" fill="#fc9744"/>
            <path id="Trazado_509882" data-name="Trazado 509882" d="M334.211,177h-8.538l-30.423-43.08,4.269-6.044Z" transform="translate(-264.829 -127.874)" fill="#fb8627"/>
            <path id="Trazado_509883" data-name="Trazado 509883" d="M169.572,177l34.691-49.123L214.09,177Z" transform="translate(-169.572 -127.876)" fill="#fb8627"/>
            <path id="Trazado_509884" data-name="Trazado 509884" d="M304.378,177h-7.519l-8.168-40.83,5.856-8.295Z" transform="translate(-259.858 -127.874)" fill="#fb7722"/>
          </g>
        </g>
        <g id="Grupo_735905" data-name="Grupo 735905">
          <g id="Grupo_735904" data-name="Grupo 735904">
            <path id="Trazado_509885" data-name="Trazado 509885" d="M28.785,164.369l39.966-53.306,39.966,53.306Z" transform="translate(-28.785 -111.062)" fill="#ffd496"/>
            <path id="Trazado_509886" data-name="Trazado 509886" d="M220.364,164.366h-8.62l-35.655-47.559,4.31-5.749Z" transform="translate(-140.433 -111.058)" fill="#fcc16d"/>
            <path id="Trazado_509887" data-name="Trazado 509887" d="M28.785,164.369l39.966-53.306,11.322,53.306Z" transform="translate(-28.785 -111.062)" fill="#fcb44d"/>
            <path id="Trazado_509888" data-name="Trazado 509888" d="M186.4,164.366h-7.709l-9.62-45.292,6.008-8.016Z" transform="translate(-135.115 -111.058)" fill="#fca62f"/>
          </g>
        </g>
      </g>
      <g id="Grupo_735914" data-name="Grupo 735914" transform="translate(0 60.37)">
        <g id="Grupo_735907" data-name="Grupo 735907" transform="translate(0 4.883)">
          <path id="Trazado_509889" data-name="Trazado 509889" d="M7.5,335.3V322.079s42.381-6.975,72.352,1.553V335.3Z" transform="translate(-7.501 -319.392)" fill="#ffe8d8"/>
          <path id="Trazado_509890" data-name="Trazado 509890" d="M79.853,323.632v11.143C53.405,321.512,7.5,325.544,7.5,325.544v-3.466S49.882,315.1,79.853,323.632Z" transform="translate(-7.501 -319.392)" fill="#fddbbf"/>
        </g>
        <g id="Grupo_735913" data-name="Grupo 735913" transform="translate(0)">
          <g id="Grupo_735912" data-name="Grupo 735912">
            <g id="Grupo_735911" data-name="Grupo 735911">
              <g id="Grupo_735910" data-name="Grupo 735910">
                <g id="Grupo_735909" data-name="Grupo 735909">
                  <g id="Grupo_735908" data-name="Grupo 735908" transform="translate(0 0.283)">
                    <path id="Trazado_509891" data-name="Trazado 509891" d="M127.8,314.85s-17.291-14.459-38.629-14.459c-31.393,0-41.695,19.417-81.672,19.417V339.23H127.8Z" transform="translate(-7.501 -300.39)" fill="#eabaa4"/>
                    <path id="Trazado_509892" data-name="Trazado 509892" d="M164.4,314.847v24.38H104.618s-6.891-2.52-6.891-8.486,12-10.408,18.512-12.514,16.994-4.718,13.613-10.359c-3.266-5.449-15.461-1.328-30.373,3.272C84.47,315.77,62.726,318.5,55.791,319.2c30.69-3.27,41.892-18.817,69.983-18.817,21.339,0,38.629,14.46,38.629,14.46Z" transform="translate(-44.102 -300.387)" fill="#e6ac8e"/>
                    <path id="Trazado_509893" data-name="Trazado 509893" d="M263.686,339.255H317.3V314.873s-16.818-14.063-37.753-14.451c6.2,1.111,13.354,5.449,10.338,13.567-3.473,9.35-27.187,9.242-31.411,16.014-2.934,4.7,1.464,7.676,5.214,9.251Z" transform="translate(-196.997 -300.414)" fill="#fddbbf"/>
                    <path id="Trazado_509894" data-name="Trazado 509894" d="M386.284,314.868v9.946s-14.39-16.075-32.3-22.557a18.967,18.967,0,0,0-5.449-1.84C369.466,300.8,386.284,314.868,386.284,314.868Z" transform="translate(-265.983 -300.41)" fill="#fcca9f"/>
                  </g>
                  <path id="Trazado_509895" data-name="Trazado 509895" d="M333.271,299.232h1.176Q333.837,299.207,333.271,299.232Z" transform="translate(-254.417 -299.219)"/>
                </g>
              </g>
            </g>
          </g>
        </g>
      </g>
    </g>
    <g id="Grupo_735916" data-name="Grupo 735916" transform="translate(0.001 43.648)">
      <path id="Trazado_509896" data-name="Trazado 509896" d="M290.354,194.8h-2.894a1.815,1.815,0,1,0,0,3.631h2.894a1.815,1.815,0,0,0,0-3.631Z" transform="translate(-216.503 -158.214)"/>
      <path id="Trazado_509897" data-name="Trazado 509897" d="M158.15,281.341h2.894a1.815,1.815,0,0,0,0-3.631H158.15a1.815,1.815,0,0,0,0,3.631Z" transform="translate(-118.494 -221.054)"/>
      <path id="Trazado_509898" data-name="Trazado 509898" d="M176.962,251.619a1.815,1.815,0,0,0,1.815,1.815h2.895a1.815,1.815,0,1,0,0-3.631h-2.895A1.815,1.815,0,0,0,176.962,251.619Z" transform="translate(-134.128 -199.903)"/>
      <path id="Trazado_509899" data-name="Trazado 509899" d="M262,270.38h-2.894a1.815,1.815,0,0,0,0,3.631H262a1.815,1.815,0,0,0,0-3.631Z" transform="translate(-195.014 -215.499)"/>
      <path id="Trazado_509900" data-name="Trazado 509900" d="M169.47,184.208h-2.894a1.815,1.815,0,1,0,0,3.631h2.894a1.815,1.815,0,1,0,0-3.631Z" transform="translate(-124.879 -150.185)"/>
      <path id="Trazado_509901" data-name="Trazado 509901" d="M113.5,249.8a1.815,1.815,0,1,0,0,3.631H116.4a1.815,1.815,0,1,0,0-3.631Z" transform="translate(-84.652 -199.903)"/>
      <path id="Trazado_509902" data-name="Trazado 509902" d="M122.117,142.818H68.88c-2.568-1.13-4.206-2.462-4.622-3.771a3.207,3.207,0,0,1,.573-2.7c1.528-2.449,7.286-4.081,12.854-5.659,8.1-2.3,16.486-4.672,18.719-10.684a10.509,10.509,0,0,0-.444-9.115,10.671,10.671,0,0,0-1.5-2,70.742,70.742,0,0,1,26.5,12.764,1.816,1.816,0,0,0,2.329-2.786,69.141,69.141,0,0,0-11.644-7.449l-.354-.181c-.011-.017-.021-.034-.032-.051l-9.772-13.837a1.815,1.815,0,0,0-2.966,2.094l6.254,8.855a59.915,59.915,0,0,0-19.18-4.267l-.661-3.3h1a1.815,1.815,0,0,0,0-3.631H84.2l-5-25L93.791,92.746a1.815,1.815,0,1,0,2.966-2.094l-1.643-2.326A25.863,25.863,0,0,0,81.957,43.672a1.815,1.815,0,0,0-.59,3.583A22.23,22.23,0,0,1,93,85.334L77.221,62.989a1.83,1.83,0,0,0-2.966,0L63.2,78.638,55.51,68.378A22.3,22.3,0,0,1,73.754,47.309a1.815,1.815,0,0,0-.643-3.573A25.96,25.96,0,0,0,52.356,64.171l-3.969-5.294a1.816,1.816,0,0,0-2.905,0l-6.59,8.789A1.815,1.815,0,1,0,41.8,69.844l4.192-5.591,9.592,45.164c-16.461-1.652-33.453-.51-43.889.58L36.881,76.4a1.815,1.815,0,0,0-2.905-2.178L6.728,110.565c-3.232.4-5.135.711-5.207.723a1.815,1.815,0,1,0,.59,3.582,242.767,242.767,0,0,1,46.2-2.375l-1.079.458C35.143,118.087,22.642,123.4,1.816,123.4a1.815,1.815,0,0,0,0,3.631c21.565,0,34.412-5.455,46.836-10.731,10.52-4.467,20.456-8.686,34.836-8.686.233,0,.466,0,.7.007,3.127.587,6.99,2.215,8.62,5.07a6.918,6.918,0,0,1,.194,6.05c-1.592,4.284-9.409,6.5-16.305,8.454-6.519,1.848-12.675,3.593-14.945,7.231a6.685,6.685,0,0,0-.952,5.724,7.133,7.133,0,0,0,1.606,2.672H1.816a1.815,1.815,0,0,0,0,3.631h120.3a1.815,1.815,0,1,0,0-3.63ZM59.043,108.244l-8.623-40.6,27.4,36.55A72.3,72.3,0,0,0,59.043,108.244ZM74.785,68.531l3.651,18.251H77.2a1.815,1.815,0,1,0,0,3.631h1.963l2.6,12.974-16.267-21.7Z" transform="translate(-0.001 -43.648)"/>
    </g>
  </g>
</svg>
