<svg xmlns="http://www.w3.org/2000/svg" width="88.192" height="87.674" viewBox="0 0 88.192 87.674">
  <g id="_3" data-name="3" transform="translate(0.001 -1.502)">
    <g id="Grupo_735309" data-name="Grupo 735309" transform="translate(1.302 2.805)">
      <path id="Trazado_508648" data-name="Trazado 508648" d="M154.4,119.2a36.414,36.414,0,0,1-72.734-2.722l21.974-30.583,16.633-5.7a36.165,36.165,0,0,1,12.157,2.875,36.461,36.461,0,0,1,22.058,33.5q0,1.329-.089,2.629Z" transform="translate(-68.905 -67.945)" fill="#a6e7f0" fill-rule="evenodd"/>
      <path id="Trazado_508649" data-name="Trazado 508649" d="M366.527,98.589a36.433,36.433,0,0,1,18.61,31.794q0,1.329-.089,2.629c-.831,5.552-10.426,5.021-10.933.182-.467-4.455-4.574-4.568-6.462-4.755-4.652-.472-6.762-3.8-.821-11.607,4.948-6.5-13.2-13.1-3.752-19.946A36.7,36.7,0,0,1,366.527,98.589Z" transform="translate(-299.55 -81.759)" fill="#80d261" fill-rule="evenodd"/>
      <path id="Trazado_508650" data-name="Trazado 508650" d="M276.5,150.105l2.282,2.028a2.844,2.844,0,0,1,.236,4l-5.617,6.325-4.289-3.145.27-5.449,3.128-3.52a2.828,2.828,0,0,1,3.989-.236Z" transform="translate(-224.062 -125.222)" fill="#838383" fill-rule="evenodd"/>
      <path id="Trazado_508651" data-name="Trazado 508651" d="M209.236,147.182l4.018,8.595,1.756,3.766a6.546,6.546,0,0,1-.679,6.778L212.3,168.6c-1.53,1.728-2.8,1.211-4.028-.655l-11.828-17.5,1.662-7.891,8.39-1.226Z" transform="translate(-163.914 -118.543)" fill="#acacac" fill-rule="evenodd"/>
      <path id="Trazado_508652" data-name="Trazado 508652" d="M109.89,240.6l4.353,8.762a5.027,5.027,0,0,1-.531,5.3l-1.112,1.25c-1.2,1.349-2.189.95-3.148-.512l-6.939-8.107,1.643-4.74Z" transform="translate(-86.158 -200.72)" fill="#acacac" fill-rule="evenodd"/>
      <path id="Trazado_508653" data-name="Trazado 508653" d="M14.524,181.047l9.064,3.19-.039,6.212-5.661,1.811L9.1,186.516c-1.559-.783-2.075-1.723-.875-3.067l1.112-1.255a5.034,5.034,0,0,1,5.188-1.147Z" transform="translate(-7.563 -151.188)" fill="#acacac" fill-rule="evenodd"/>
      <path id="Trazado_508654" data-name="Trazado 508654" d="M201.362,380.609c3.241-5.39,13.225-6.621,20.228.94a36.348,36.348,0,0,1-51.684,9.653c-.329-9.987,7.731-12.577,14.228-7.206C186.932,386.3,197.275,387.422,201.362,380.609Z" transform="translate(-141.934 -312.98)" fill="#80d261" fill-rule="evenodd"/>
      <path id="Trazado_508655" data-name="Trazado 508655" d="M106.194,9.068a2.781,2.781,0,0,1,1.869.709l2.282,2.028a2.84,2.84,0,0,1,.236,4l-3.123,3.52H100.8l-2.341-2.983,5.617-6.325a2.819,2.819,0,0,1,2.11-.945Z" transform="translate(-82.801 -9.068)" fill="#838383" fill-rule="evenodd"/>
      <path id="Trazado_508656" data-name="Trazado 508656" d="M33.77,43.365l9,2.983L48.9,48.376,47.816,56.3l-6.777,3.14-18.763-9.7c-2-1-2.656-2.2-1.121-3.928l2.026-2.279a6.541,6.541,0,0,1,6.644-1.472Z" transform="translate(-18.114 -36.095)" fill="#acacac" fill-rule="evenodd"/>
      <path id="Trazado_508657" data-name="Trazado 508657" d="M91.6,15.33c3.015-.9,7-1.492,8.9.217,1.918,1.683,1.79,5.715,1.254,8.816a9.937,9.937,0,0,1-.349,1.418,16.154,16.154,0,0,1-4.736,6.862L92.627,36.31,82.574,45.426l-16.2,14.659-.688.65A5.441,5.441,0,0,1,62.8,62.059c-3.069.315-5.208-3.008-3.049-6.6l.61-.856,12.6-17.726L80.823,25.81l3.167-4.45c2.434-3.406,5.1-5.281,7.613-6.03Z" transform="translate(-50.038 -13.529)" fill="#ececec" fill-rule="evenodd"/>
      <path id="Trazado_508658" data-name="Trazado 508658" d="M89.34,33.673,79.288,42.79l-16.2,14.659-.688.65a5.458,5.458,0,0,1-2.887,1.324,4.1,4.1,0,0,1-.546.02,3.507,3.507,0,0,0,3.91,3.313,5.441,5.441,0,0,0,2.887-1.324l.688-.65,16.2-14.659L92.7,37.006l4.048-3.667a16.155,16.155,0,0,0,4.736-6.862,9.919,9.919,0,0,0,.349-1.418c.536-3.1.664-7.133-1.254-8.816a4.226,4.226,0,0,0-2.061-.945,16.772,16.772,0,0,1-.049,6.434,9.884,9.884,0,0,1-.349,1.413,16.154,16.154,0,0,1-4.736,6.862Z" transform="translate(-50.116 -14.225)" fill="#cecece" fill-rule="evenodd"/>
      <path id="Trazado_508659" data-name="Trazado 508659" d="M210.741,198.807l-11.833-17.5-2.459,2.23,11.828,17.5c1.23,1.866,2.5,2.382,4.028.655l1.107-1.245c-.959.3-1.824-.35-2.67-1.639Z" transform="translate(-163.914 -151.636)" fill="#838383" fill-rule="evenodd"/>
      <path id="Trazado_508660" data-name="Trazado 508660" d="M291.633,158.912l-4.844,5.459,1.244,2.663,5.617-6.325a2.844,2.844,0,0,0-.236-4l-2.007-1.787v0A2.84,2.84,0,0,1,291.633,158.912Z" transform="translate(-238.693 -129.801)" fill="#595959" fill-rule="evenodd"/>
      <path id="Trazado_508661" data-name="Trazado 508661" d="M134.169,24.817l2.849.962,3.123-3.52a2.84,2.84,0,0,0-.236-4l-1.564-1.393c1.156,1.039.712,2.636-.341,3.783Z" transform="translate(-112.361 -15.526)" fill="#595959" fill-rule="evenodd"/>
      <path id="Trazado_508662" data-name="Trazado 508662" d="M42.839,71.2,24.082,61.5c-1.4-.7-2.139-1.5-1.933-2.506l-.994,1.117c-1.534,1.728-.875,2.924,1.121,3.928l18.763,9.7Z" transform="translate(-18.114 -50.393)" fill="#838383" fill-rule="evenodd"/>
      <path id="Trazado_508663" data-name="Trazado 508663" d="M111.562,276.428l-6.939-8.107-2.11,1.915,6.939,8.107c.959,1.462,1.952,1.861,3.148.512l1-1.127C112.875,277.92,112.211,277.413,111.562,276.428Z" transform="translate(-86.158 -223.665)" fill="#838383" fill-rule="evenodd"/>
      <path id="Trazado_508664" data-name="Trazado 508664" d="M19.546,197.353l-8.784-5.745c-1.052-.532-1.628-1.127-1.525-1.875l-1.013,1.142c-1.2,1.344-.684,2.284.875,3.067l8.789,5.744Z" transform="translate(-7.563 -158.614)" fill="#838383" fill-rule="evenodd"/>
      <path id="Trazado_508665" data-name="Trazado 508665" d="M406.243,133.955a36.433,36.433,0,0,0-18.61-31.794c-.6-.335-1.2-.655-1.825-.96,5.956,7.886,9.644,18.823,9.644,30.913q0,2.473-.2,4.868c.762,4.637,10.087,5.07,10.9-.4Q406.243,135.284,406.243,133.955Z" transform="translate(-320.656 -85.331)" fill="#4fc122" fill-rule="evenodd"/>
      <path id="Trazado_508666" data-name="Trazado 508666" d="M440.046,306.615c-.816,5.469-10.141,5.036-10.9.4a55.23,55.23,0,0,1-2.39,12.168,16.543,16.543,0,0,1,7.451,4.75A36.214,36.214,0,0,0,440.046,306.615Z" transform="translate(-354.548 -255.363)" fill="#6bd9e7" fill-rule="evenodd"/>
      <path id="Trazado_508667" data-name="Trazado 508667" d="M366.627,379.573a42.8,42.8,0,0,1-12.512,19.709,36.515,36.515,0,0,0,19.963-14.959A16.542,16.542,0,0,0,366.627,379.573Z" transform="translate(-294.422 -315.754)" fill="#4fc122" fill-rule="evenodd"/>
    </g>
    <path id="Trazado_508668" data-name="Trazado 508668" d="M88.191,51.429A37.824,37.824,0,0,0,68.917,18.5,37.2,37.2,0,0,0,54.3,13.884l0-.023c.585-3.384.769-7.869-1.666-10.006-2.552-2.3-7.45-1.3-10.144-.5-3.025.9-5.9,3.156-8.3,6.524L31.587,13.55l-3.341-1.107,1.81-2.039a4.142,4.142,0,0,0-.344-5.835L27.43,2.542a4.134,4.134,0,0,0-5.828.344L16.553,8.572l-3.13-1.036A7.788,7.788,0,0,0,5.4,9.378l-2.027,2.28a3.669,3.669,0,0,0-1.125,3.135c.213,1.113,1.075,2.036,2.622,2.814L22.3,26.62,16.836,34.3,8.7,31.437a6.3,6.3,0,0,0-6.6,1.512L.993,34.2a3.125,3.125,0,0,0-.949,2.689,3.725,3.725,0,0,0,2.144,2.374L9.8,44.239c-1.755,3.076-.9,5.864.751,7.283a4.794,4.794,0,0,0,2.236,1.06A37.591,37.591,0,0,0,15.547,65.6a1.3,1.3,0,1,0,2.411-.981,35.008,35.008,0,0,1-2.572-12.23,7.185,7.185,0,0,0,2.138-1.165l6.031,7.045a3.715,3.715,0,0,0,2.6,1.848c.061,0,.121.007.181.007a3.211,3.211,0,0,0,2.381-1.262l1.113-1.252a6.293,6.293,0,0,0,.723-6.739l-3.915-7.881L33.6,36.676l4.245,6.282A1.3,1.3,0,0,0,40,41.5l-4.453-6.591,7.91-7.172,1.977,4.234c.008.019.017.037.026.055L51.22,44.356a5.249,5.249,0,0,1-.472,5.362L48.719,52c-.444.5-.737.629-.842.616-.149-.011-.554-.259-1.132-1.137l-3.59-5.311A1.3,1.3,0,1,0,41,47.624l3.582,5.3c.962,1.459,1.98,2.208,3.113,2.288.067,0,.133.007.2.007a3.764,3.764,0,0,0,2.775-1.493l2.026-2.279a7.8,7.8,0,0,0,.886-8.194l-1.4-2.988,5.052-5.689a4.145,4.145,0,0,0-.346-5.833l-2.281-2.027a4.13,4.13,0,0,0-5.827.344L46.967,29.1l-1.49-3.192,3.335-3.024,0,0a18.425,18.425,0,0,0,4.739-6.453,34.641,34.641,0,0,1,8.831,1.935A5.877,5.877,0,0,0,60.8,21.626c-.366,2.982,1.858,5.625,4.009,8.18,2.956,3.512,4.191,5.376,2.739,7.283-3.417,4.491-4.6,8.042-3.506,10.557.539,1.242,1.884,2.794,5.234,3.134l.345.032c2.435.221,4.646.66,4.951,3.563.3,2.847,3,4.892,6.572,4.971l.193,0a8.146,8.146,0,0,0,3.52-.774A34.932,34.932,0,0,1,80.7,69.291,16.269,16.269,0,0,0,68.1,64.82a10.947,10.947,0,0,0-8.484,4.944,9.628,9.628,0,0,1-6.85,4.33c-3.717.639-7.286-.331-8.432-1.277-3.636-3.006-7.978-3.85-11.331-2.2-2.748,1.349-4.473,4.144-4.921,7.849a35.5,35.5,0,0,1-7.1-8.031A1.3,1.3,0,1,0,18.8,71.844,37.69,37.69,0,0,0,88.087,54.252v0a1.3,1.3,0,0,0,.013-.212q.088-1.3.09-2.61ZM50.727,28.787a1.526,1.526,0,0,1,2.149-.126l2.281,2.027a1.536,1.536,0,0,1,.128,2.161l-4.3,4.847-2.815-6.028ZM23.548,4.615A1.516,1.516,0,0,1,24.6,4.108a1.493,1.493,0,0,1,1.1.379l2.283,2.029a1.538,1.538,0,0,1,.126,2.159l-2.553,2.877-6.311-2.09ZM6.05,15.287c-1.139-.573-1.24-.944-1.247-.984-.02-.1.066-.412.514-.916l2.028-2.281a5.239,5.239,0,0,1,5.261-1.1L25.5,14.276c.022.008.044.015.066.022l4.445,1.472L23.82,24.476ZM3.423,36.97a2.27,2.27,0,0,1-.811-.563,1.572,1.572,0,0,1,.326-.477l1.109-1.252a3.769,3.769,0,0,1,3.785-.785l7.436,2.617L11.291,42.1l-7.74-5.059a1.287,1.287,0,0,0-.128-.074Zm24.8,15.057a3.761,3.761,0,0,1-.338,3.853L26.77,57.132a1.557,1.557,0,0,1-.433.376,2.274,2.274,0,0,1-.651-.739,1.306,1.306,0,0,0-.1-.132L19.468,49.49l5.166-4.684Zm18.84-31.07-4.012,3.637c-.022.019-.044.039-.065.059L16.1,49.027a4.226,4.226,0,0,1-2.14,1.012l-.044,0a2.162,2.162,0,0,1-1.669-.5c-.848-.728-1.216-2.276-.138-4.1L25.272,26.928l.029-.04L36.313,11.394c2.065-2.89,4.46-4.805,6.925-5.539,3.584-1.065,6.52-1.09,7.672-.053,1.15,1.009,1.468,3.927.83,7.618-.433,2.531-2.052,5.138-4.679,7.538ZM81.2,56.743c-1.875-.042-3.864-.961-4.04-2.639-.553-5.271-5.284-5.7-7.3-5.884l-.321-.03c-1.155-.117-2.631-.487-3.106-1.58-.659-1.519.5-4.414,3.189-7.944,2.872-3.774-.284-7.523-2.82-10.536C65.009,26,63.156,23.8,63.384,21.943a4.058,4.058,0,0,1,1.634-2.507q1.332.609,2.623,1.334A35.216,35.216,0,0,1,85.588,51.429c0,.853-.032,1.7-.092,2.536-.379,2.109-2.536,2.819-4.293,2.778ZM50.48,86.573a34.884,34.884,0,0,1-19.914-6.216c.023-3.61,1.31-6.29,3.581-7.405,2.422-1.19,5.688-.472,8.525,1.874,2.085,1.72,6.613,2.509,10.531,1.835a12.151,12.151,0,0,0,8.641-5.555,8.5,8.5,0,0,1,6.52-3.7,13.794,13.794,0,0,1,10.905,4.106A35.079,35.079,0,0,1,50.48,86.573Z" transform="translate(0)"/>
    <path id="Trazado_508669" data-name="Trazado 508669" d="M242.535,43.478a1.3,1.3,0,1,0,.217,2.594c1.306-.106,3.037,1.482,3.2,2.935a1.3,1.3,0,0,0,2.588-.283C248.222,45.849,245.25,43.248,242.535,43.478Z" transform="translate(-199.772 -34.734)"/>
  </g>
</svg>
