<svg xmlns="http://www.w3.org/2000/svg" width="106.604" height="106.604" viewBox="0 0 106.604 106.604">
  <g id="Grupo_944291" data-name="Grupo 944291" transform="translate(-333.318 -3399.215)">
    <circle id="Elipse_4881" data-name="Elipse 4881" cx="53.302" cy="53.302" r="53.302" transform="translate(333.318 3399.215)" fill="#ffb22a"/>
    <path id="Trazado_638691" data-name="Trazado 638691" d="M20.2,22.152H13.94V15.894A.894.894,0,0,0,13.046,15a8.046,8.046,0,1,0,8.046,8.046A.894.894,0,0,0,20.2,22.152Zm-8.046-5.3v5.825L8.04,26.789a6.245,6.245,0,0,1,4.113-9.937ZM13.046,29.3a6.216,6.216,0,0,1-3.74-1.251l4.112-4.113h5.825A6.268,6.268,0,0,1,13.046,29.3Z" transform="translate(358.861 3425.802)"/>
    <path id="Trazado_638692" data-name="Trazado 638692" d="M17.894,19.94h7.152a.894.894,0,0,0,.894-.894A8.056,8.056,0,0,0,17.894,11a.894.894,0,0,0-.894.894v7.152A.894.894,0,0,0,17.894,19.94Zm.894-7.089a6.274,6.274,0,0,1,5.3,5.3h-5.3Z" transform="translate(357.59 3426.226)"/>
    <path id="Trazado_638693" data-name="Trazado 638693" d="M37.622,26A11.622,11.622,0,1,0,49.245,37.622,11.622,11.622,0,0,0,37.622,26Zm-4.47,8.046V28.873a9.811,9.811,0,0,1,1.788-.7v5.877Zm10.728,1.788v1.788H31.364V35.834ZM40.3,34.046V28.169a9.811,9.811,0,0,1,1.788.7v5.173Zm-1.788-6.213v6.213H36.728V27.834c.3-.027.592-.046.894-.046S38.221,27.807,38.516,27.834Zm-7.152,2.208v4H30.47a.894.894,0,0,0-.894.894v3.576a.894.894,0,0,0,.894.894h14.3a.894.894,0,0,0,.894-.894V34.94a.894.894,0,0,0-.894-.894h-.894v-4A9.788,9.788,0,0,1,46.774,41.2h-18.3a9.788,9.788,0,0,1,2.893-11.157Zm6.258,17.415a9.834,9.834,0,0,1-8.232-4.47H45.855a9.834,9.834,0,0,1-8.232,4.47Z" transform="translate(356.636 3424.636)"/>
    <path id="Trazado_638694" data-name="Trazado 638694" d="M55.242,49.507,51.374,45.64a1.788,1.788,0,0,0-.308-2.1L48.79,41.268a15.094,15.094,0,0,0-1.3-14.9V3.682A2.682,2.682,0,0,0,44.807,1H3.682A2.682,2.682,0,0,0,1,3.682V37.655a2.682,2.682,0,0,0,2.682,2.682H20.771a15.14,15.14,0,0,0,20.5,8.453l2.275,2.275a1.763,1.763,0,0,0,2.1.308l3.868,3.868a4.055,4.055,0,0,0,5.734-5.734ZM3.682,2.788H44.807a.894.894,0,0,1,.894.894V6.364H2.788V3.682A.894.894,0,0,1,3.682,2.788Zm0,35.761a.894.894,0,0,1-.894-.894V8.152H45.7V24.219a15.249,15.249,0,0,0-4.47-3.08v-10.3a.894.894,0,0,0-.894-.894H36.761a.894.894,0,0,0-.894.894V19.82c-.3-.018-.592-.046-.894-.046s-.6.028-.894.046V16.2a.894.894,0,0,0-.894-.894H29.609a.894.894,0,0,0-.894.894v4.94a15.093,15.093,0,0,0-8.493,17.41Zm35.761-18.1a15.035,15.035,0,0,0-1.788-.422v-8.3h1.788Zm-7.152-.422a15.034,15.034,0,0,0-1.788.422V17.093h1.788ZM21.563,34.973a13.41,13.41,0,1,1,13.41,13.41,13.41,13.41,0,0,1-13.41-13.41ZM42.914,47.908a15.288,15.288,0,0,0,4.994-4.994L49.8,44.807,44.807,49.8Zm9.461,6.734a2.253,2.253,0,0,1-1.6-.664l-3.806-3.806,3.206-3.206,3.806,3.806a2.267,2.267,0,0,1-1.6,3.87Z" transform="translate(359.285 3427.285)"/>
    <path id="Trazado_638695" data-name="Trazado 638695" d="M16.622,35H5.894A.894.894,0,0,0,5,35.894V39.47a.894.894,0,0,0,.894.894H16.622a.894.894,0,0,0,.894-.894V35.894A.894.894,0,0,0,16.622,35Zm-.894,3.576H6.788V36.788h8.94Z" transform="translate(358.861 3423.682)"/>
  </g>
</svg>
