<svg xmlns="http://www.w3.org/2000/svg" width="106.604" height="106.604" viewBox="0 0 106.604 106.604">
  <g id="Grupo_944290" data-name="Grupo 944290" transform="translate(-335.636 -3939.19)">
    <circle id="Elipse_4884" data-name="Elipse 4884" cx="53.302" cy="53.302" r="53.302" transform="translate(335.636 3939.19)" fill="#ffb22a"/>
    <path id="Trazado_638709" data-name="Trazado 638709" d="M42.166,71.032a.838.838,0,0,0,.562-.216c.2-.181.407-.361.614-.536A.841.841,0,1,0,42.255,69c-.219.186-.438.378-.651.569a.841.841,0,0,0,.563,1.465Z" transform="translate(325.061 3902.687)"/>
    <path id="Trazado_638710" data-name="Trazado 638710" d="M245.751,13.811c.543.079,1.09.176,1.626.287a.841.841,0,1,0,.343-1.646c-.569-.119-1.15-.221-1.727-.305a.841.841,0,0,0-.242,1.664Z" transform="translate(144.222 3952.985)"/>
    <path id="Trazado_638711" data-name="Trazado 638711" d="M368.539,68.5c.422.35.839.718,1.239,1.092a.841.841,0,0,0,1.149-1.227c-.425-.4-.867-.788-1.316-1.159a.841.841,0,1,0-1.073,1.294Z" transform="translate(34.85 3904.274)"/>
    <path id="Trazado_638712" data-name="Trazado 638712" d="M289.8,24.407c.52.177,1.04.372,1.548.58a.841.841,0,1,0,.638-1.556c-.539-.221-1.092-.428-1.644-.616a.841.841,0,1,0-.541,1.592Z" transform="translate(104.987 3943.547)"/>
    <path id="Trazado_638713" data-name="Trazado 638713" d="M200.5,11.216h.03c.546-.019,1.1-.022,1.653-.009a.841.841,0,0,0,.04-1.681c-.583-.014-1.173-.011-1.752.01a.841.841,0,0,0,.029,1.681Z" transform="translate(184.499 3955.313)"/>
    <path id="Trazado_638714" data-name="Trazado 638714" d="M427.25,139.074a.841.841,0,0,0,1.51-.74c-.256-.522-.531-1.044-.818-1.549a.841.841,0,1,0-1.462.83C426.749,138.091,427.009,138.582,427.25,139.074Z" transform="translate(-16.759 3842.709)"/>
    <path id="Trazado_638715" data-name="Trazado 638715" d="M401.674,101.729a.841.841,0,1,0,1.351-1c-.347-.468-.712-.931-1.085-1.376a.841.841,0,0,0-1.289,1.08C401,100.852,401.347,101.288,401.674,101.729Z" transform="translate(6.247 3875.829)"/>
    <path id="Trazado_638716" data-name="Trazado 638716" d="M445.137,178.839c.18.518.346,1.048.493,1.576a.841.841,0,1,0,1.619-.452c-.156-.56-.333-1.123-.523-1.674a.841.841,0,0,0-1.589.551Z" transform="translate(-33.378 3805.989)"/>
    <path id="Trazado_638717" data-name="Trazado 638717" d="M155.426,14.561a.848.848,0,0,0,.182-.02c.534-.118,1.08-.221,1.622-.306a.841.841,0,1,0-.261-1.661c-.575.09-1.155.2-1.723.325a.841.841,0,0,0,.18,1.662Z" transform="translate(224.515 3952.607)"/>
    <path id="Trazado_638718" data-name="Trazado 638718" d="M331.189,42.856c.478.268.955.554,1.416.851a.841.841,0,0,0,.909-1.414c-.49-.315-1-.619-1.5-.9a.841.841,0,1,0-.822,1.467Z" transform="translate(68.118 3927.113)"/>
    <path id="Trazado_638719" data-name="Trazado 638719" d="M112.137,25.99a.84.84,0,0,0,.327-.067c.505-.214,1.023-.414,1.54-.6a.841.841,0,0,0-.559-1.586c-.549.193-1.1.407-1.635.633a.841.841,0,0,0,.328,1.615Z" transform="translate(262.945 3942.728)"/>
    <path id="Trazado_638720" data-name="Trazado 638720" d="M72.074,45.234a.837.837,0,0,0,.462-.139c.458-.3.931-.593,1.406-.866a.841.841,0,1,0-.838-1.458c-.5.29-1.007.6-1.493.92a.841.841,0,0,0,.463,1.543Z" transform="translate(298.511 3925.891)"/>
    <path id="Trazado_638721" data-name="Trazado 638721" d="M456.716,221.98a.841.841,0,0,0-.706.957c.04.268.077.54.11.809a.841.841,0,0,0,1.669-.2c-.034-.285-.074-.573-.117-.858A.842.842,0,0,0,456.716,221.98Z" transform="translate(-43.063 3766.708)"/>
    <path id="Trazado_638722" data-name="Trazado 638722" d="M67.938,201.069a.841.841,0,0,0-.841-.841H65.483a.841.841,0,1,0,0,1.681H67.1A.841.841,0,0,0,67.938,201.069Z" transform="translate(304.361 3786.011)"/>
    <path id="Trazado_638723" data-name="Trazado 638723" d="M91.435,234.526H89.821a.841.841,0,0,0,0,1.681h1.614a.841.841,0,0,0,0-1.681Z" transform="translate(282.755 3755.563)"/>
    <path id="Trazado_638724" data-name="Trazado 638724" d="M57.142,302.005H55.528a.841.841,0,0,0,0,1.681h1.614a.841.841,0,0,0,0-1.681Z" transform="translate(313.199 3695.659)"/>
    <path id="Trazado_638725" data-name="Trazado 638725" d="M211.122,87.384h-1.615a.841.841,0,1,0,0,1.681h1.615a.841.841,0,1,0,0-1.681Z" transform="translate(176.504 3886.187)"/>
    <path id="Trazado_638726" data-name="Trazado 638726" d="M253.979,369.293a.841.841,0,0,0-.841-.841h-1.615a.841.841,0,1,0,0,1.681h1.615A.841.841,0,0,0,253.979,369.293Z" transform="translate(139.206 3636.671)"/>
    <path id="Trazado_638727" data-name="Trazado 638727" d="M221.66,396.162h-1.615a.841.841,0,1,0,0,1.681h1.615a.841.841,0,1,0,0-1.681Z" transform="translate(167.149 3612.072)"/>
    <path id="Trazado_638728" data-name="Trazado 638728" d="M56.585,75.7a3.053,3.053,0,0,0-2.251-.89A8.929,8.929,0,0,0,48.447,77.3q.083-1.007.084-2.029a24.285,24.285,0,0,0-9.753-19.45,24.745,24.745,0,0,0-4.614-2.718,24.311,24.311,0,0,0-27.056,5.01c-.442.442-.861.894-1.267,1.368a24.272,24.272,0,0,0,29.693,37.29l1.731,3.808a1.9,1.9,0,0,0,1.388,1.081,1.928,1.928,0,0,0,1.679-.525l1.257-1.257a1.893,1.893,0,0,0,.553-1.254l.152-3.3,3.259-2.959L49.545,98.4a1.889,1.889,0,0,0,1.391.841,1.924,1.924,0,0,0,1.532-.546l1.257-1.257a1.9,1.9,0,0,0,.532-1.64L52.68,85.922l1.815-1.612a8.926,8.926,0,0,0,2.981-6.359A3.054,3.054,0,0,0,56.585,75.7ZM37.221,56.774a22.579,22.579,0,0,1,9.332,14.837H32.683a1.892,1.892,0,0,1,0-3.784H36.04a3.573,3.573,0,1,0,0-7.146H34.488a1.954,1.954,0,1,1,0-3.907h2.733ZM24.266,97.858A22.447,22.447,0,0,1,12.273,94.4h5.759a4.069,4.069,0,1,0,0-8.139H15.052a1.146,1.146,0,0,1,0-2.292H26.022a4.769,4.769,0,0,0,0-9.539H21.68A3.183,3.183,0,0,1,18.5,71.255v-.268a2.911,2.911,0,0,1,2.912-2.911,4.443,4.443,0,0,0,0-8.885H15.682a.841.841,0,0,0,0,1.681h5.731a2.761,2.761,0,0,1,0,5.522,4.593,4.593,0,0,0-4.594,4.592v.268a4.866,4.866,0,0,0,4.86,4.86h4.343a3.088,3.088,0,0,1,0,6.176H15.052a2.828,2.828,0,0,0,0,5.655h2.981a2.388,2.388,0,1,1,0,4.776H9.926A22.584,22.584,0,0,1,6.87,60.872h4.879a.841.841,0,1,0,0-1.681H8.431a22.54,22.54,0,0,1,25.966-4.1,3.634,3.634,0,0,0,.092,7.268H36.04a1.891,1.891,0,1,1,0,3.783H32.683a3.573,3.573,0,1,0,0,7.147H46.762q.086.98.088,1.982a22.612,22.612,0,0,1-.4,4.234l-.083.094L42.03,78.91a.841.841,0,1,0-.265,1.66l3.258.52-3.967,4.375L34.8,81.333A.215.215,0,0,1,34.77,81l1.257-1.257a.216.216,0,0,1,.186-.06l1.646.263a.841.841,0,1,0,.265-1.66l-1.646-.263a1.9,1.9,0,0,0-1.639.532l-1.257,1.257a1.9,1.9,0,0,0,.3,2.923l6.044,3.995-2.96,3.26-3.3.152A1.892,1.892,0,0,0,32.4,90.7l-1.257,1.257a1.9,1.9,0,0,0,.556,3.068l1.843.838a22.445,22.445,0,0,1-9.282,2Zm28.27-1.6-1.257,1.256a.215.215,0,0,1-.331-.033l-4.132-6.252,4.375-3.967L52.6,96.069A.216.216,0,0,1,52.536,96.255Zm.842-13.2L50.25,85.831l-9.345,8.483a.841.841,0,0,0-.275.584l-.169,3.651a.214.214,0,0,1-.063.142l-1.257,1.257a.215.215,0,0,1-.348-.063l-1.868-4.11a.842.842,0,0,0-.417-.417L32.4,93.49a.215.215,0,0,1-.063-.348l1.257-1.257a.215.215,0,0,1,.142-.063l3.651-.169a.841.841,0,0,0,.584-.275L49.232,78.907a7.237,7.237,0,0,1,5.156-2.417h.046A1.364,1.364,0,0,1,55.795,77.9a7.237,7.237,0,0,1-2.417,5.156Z" transform="translate(361.747 3918.478)"/>
  </g>
</svg>
