<svg xmlns="http://www.w3.org/2000/svg" width="106.604" height="106.604" viewBox="0 0 106.604 106.604">
  <g id="Grupo_944294" data-name="Grupo 944294" transform="translate(-335.636 -4157.218)">
    <circle id="Elipse_5324" data-name="Elipse 5324" cx="53.302" cy="53.302" r="53.302" transform="translate(335.636 4157.218)" fill="#ffb22a"/>
    <path id="Trazado_681402" data-name="Trazado 681402" d="M55.337,33.164c0-7.346-3.026-16.953-11.449-20.4V9.082l2.5-2a.954.954,0,0,0,.358-.745V.99A.954.954,0,0,0,45.8.036H42.934a.954.954,0,0,0-.675.28L41.026,1.549,39.792.316a.954.954,0,0,0-.675-.28H35.3a.954.954,0,0,0-.675.28L33.393,1.549,32.159.316a.954.954,0,0,0-.675-.28H28.623a.954.954,0,0,0-.954.954V6.333a.954.954,0,0,0,.358.745l2.5,2v3.681c-8.423,3.448-11.449,13.059-11.449,20.4a15.6,15.6,0,0,0,.792,5.072c-.41-.023-.823-.036-1.236-.036H16.219a.954.954,0,0,0-.954-.954H7.633a.954.954,0,0,0-.954.954H0v1.908H6.679v9.541H0v1.908H6.679a.954.954,0,0,0,.954.954h7.633a.954.954,0,0,0,.954-.954v-.364l7.123,2.958a16.506,16.506,0,0,0,12.142.135l14.739-5.621a3.472,3.472,0,0,0,1.949-1.858A3.507,3.507,0,0,0,51.554,43,13.235,13.235,0,0,0,55.337,33.164ZM14.311,50.6H8.587V39.154h5.725ZM29.577,5.875V1.944H31.09l1.629,1.629a.954.954,0,0,0,1.349,0L35.7,1.944h3.026l1.629,1.629a.954.954,0,0,0,1.349,0l1.629-1.629h1.513V5.875L42.6,7.669H31.818Zm12.4,3.7v2.862H32.439V9.577Zm8.443,36.461a1.576,1.576,0,0,1-.883.846L34.8,52.5a14.6,14.6,0,0,1-10.735-.115l-7.845-3.262V40.108h2.419a20.484,20.484,0,0,1,9.114,2.151,6.752,6.752,0,0,0,3.01.711h7.4a1.431,1.431,0,0,1,.315,2.825c-.125.011-.247.037-.374.037H26.714V47.74H38.163c.019,0,.037-.006.057-.006a5.878,5.878,0,0,0,2.2-.467L48.4,43.882a1.515,1.515,0,0,1,1.19,0,1.575,1.575,0,0,1,.859.888A1.638,1.638,0,0,1,50.422,46.038Zm-.569-4.064a3.4,3.4,0,0,0-2.2.152l-6.186,2.627A3.3,3.3,0,0,0,41.5,44.4a3.339,3.339,0,0,0-3.339-3.339h-7.4a4.852,4.852,0,0,1-2.157-.509,22.37,22.37,0,0,0-6.575-2.082,13.072,13.072,0,0,1-1.041-5.307c0-6.869,2.806-15.886,10.686-18.816H42.743c7.88,2.93,10.686,11.947,10.686,18.816A11.311,11.311,0,0,1,49.854,41.974Z" transform="translate(362.811 4182.821)"/>
    <rect id="Rectángulo_337316" data-name="Rectángulo 337316" width="2.074" height="1.383" transform="translate(373.182 4229.882)"/>
    <path id="Trazado_681403" data-name="Trazado 681403" d="M285.83,182.384l-3.449-1.15a.709.709,0,0,1,.223-1.382H285a.71.71,0,0,1,.709.71v.626h1.908v-.626A2.62,2.62,0,0,0,285,177.944h-.245v-1.908h-1.908v1.908H282.6a2.617,2.617,0,0,0-.827,5.1l3.449,1.15a.709.709,0,0,1-.223,1.382h-2.4a.71.71,0,0,1-.709-.71v-.626h-1.908v.626a2.62,2.62,0,0,0,2.617,2.618h.245v1.908h1.908v-1.908H285a2.617,2.617,0,0,0,.827-5.1Z" transform="translate(116.217 4027.811)"/>
    <path id="Trazado_681404" data-name="Trazado 681404" d="M234.495,144.036a10.495,10.495,0,1,0,10.495,10.495A10.495,10.495,0,0,0,234.495,144.036Zm0,19.082a8.587,8.587,0,1,1,8.587-8.587A8.587,8.587,0,0,1,234.495,163.118Z" transform="translate(165.525 4055.995)"/>
  </g>
</svg>
