<svg xmlns="http://www.w3.org/2000/svg" width="105.594" height="102.906" viewBox="0 0 105.594 102.906">
  <g id="vacaciones" transform="translate(-0.001 -0.05)">
    <g id="Grupo_735318" data-name="Grupo 735318" transform="translate(1.547 9.916)">
      <path id="Trazado_508670" data-name="Trazado 508670" d="M7.522,327.062H110v35.673H7.5Z" transform="translate(-7.501 -271.202)" fill="#5ed8f6"/>
      <path id="Trazado_508671" data-name="Trazado 508671" d="M7.5,367c6.255-8.3,18.269-11.989,28.282-8.674,11.825,3.915,20.284,16.2,32.759,16.8,5.782.278,11.294-2.1,16.759-3.96s15.519-5.035,24.669,2.451v13.13H7.5Z" transform="translate(-7.501 -295.218)" fill="#ffd686"/>
      <g id="Grupo_735310" data-name="Grupo 735310" transform="translate(16.44 61.902)">
        <path id="Trazado_508672" data-name="Trazado 508672" d="M90.825,358.336c11.825,3.915,20.284,16.2,32.759,16.8a22.547,22.547,0,0,0,5.179-.39c-10.853-2.221-18.861-12.824-29.69-16.41a25.183,25.183,0,0,0-11.841-.878,23.585,23.585,0,0,1,3.593.878Z" transform="translate(-87.232 -357.126)" fill="#f7ca6d"/>
        <path id="Trazado_508673" data-name="Trazado 508673" d="M419.643,416.024l.091.017a11.189,11.189,0,0,1,9.146,10.925v6.56h8.248V420.4C431.178,415.53,424.847,415.169,419.643,416.024Z" transform="translate(-351.1 -403.897)" fill="#f7ca6d"/>
      </g>
      <g id="Grupo_735316" data-name="Grupo 735316" transform="translate(0.02 5.774)">
        <g id="Grupo_735312" data-name="Grupo 735312">
          <g id="Grupo_735311" data-name="Grupo 735311">
            <path id="Trazado_508674" data-name="Trazado 508674" d="M78.818,107.134a7.126,7.126,0,0,0-8.209-5.742,6.987,6.987,0,0,0-5.891,8,7.126,7.126,0,0,0-8.209-5.742,6.987,6.987,0,0,0-5.891,8,7.126,7.126,0,0,0-8.209-5.742,6.987,6.987,0,0,0-5.891,8,7.126,7.126,0,0,0-8.209-5.742,6.987,6.987,0,0,0-5.891,8,7.126,7.126,0,0,0-8.209-5.742,6.987,6.987,0,0,0-5.891,8l-.239.038C4.868,99.433,18.1,81.463,37.628,78.333S75.6,88.1,78.807,107.136Z" transform="translate(-7.598 -77.865)" fill="#fe75a7"/>
          </g>
        </g>
        <g id="Grupo_735313" data-name="Grupo 735313" transform="translate(31.759 0.001)">
          <path id="Trazado_508675" data-name="Trazado 508675" d="M352.634,221.716c-.026-.151-.058-.3-.092-.447.027.149.056.3.082.448Z" transform="translate(-313.174 -192.448)" fill="#fe5995"/>
          <path id="Trazado_508676" data-name="Trazado 508676" d="M161.618,78.1a35.689,35.689,0,0,1,29.844,23.665,7.329,7.329,0,0,1,1.408-.372,7.14,7.14,0,0,1,8.117,5.3c-3.321-18.231-20.643-30.7-39.368-28.589Z" transform="translate(-161.618 -77.871)" fill="#fe5995"/>
        </g>
        <g id="Grupo_735314" data-name="Grupo 735314" transform="translate(13.91 0.299)">
          <path id="Trazado_508677" data-name="Trazado 508677" d="M153.253,80.186h0Z" transform="translate(-137.128 -80.017)" fill="none"/>
          <path id="Trazado_508678" data-name="Trazado 508678" d="M91.192,79.518h-.01C79.747,81.354,72.928,97.64,75.66,116.188a6.856,6.856,0,0,1,.308,1.172,6.8,6.8,0,0,1,5.891-7.8,6.99,6.99,0,0,1,8.209,5.541,6.987,6.987,0,0,1,5.891-8,7.126,7.126,0,0,1,8.209,5.742,6.8,6.8,0,0,1,5.891-7.8,7.041,7.041,0,0,1,7.848,4.221C114.366,90.919,102.594,77.7,91.192,79.518Z" transform="translate(-75.059 -79.351)" fill="#e1f3ff"/>
        </g>
        <g id="Grupo_735315" data-name="Grupo 735315" transform="translate(26.871 0.425)">
          <path id="Trazado_508679" data-name="Trazado 508679" d="M153.937,80.05l-.025.006.063-.009Z" transform="translate(-150.614 -80.033)" fill="none"/>
          <path id="Trazado_508680" data-name="Trazado 508680" d="M141.277,79.992l-.063.009c-3.819.68-4.4,16.183-1.334,34.849a7.008,7.008,0,0,1,5.975-7.249,7.126,7.126,0,0,1,8.209,5.742,6.9,6.9,0,0,1-.082-.714C150.759,93.992,145.121,79.477,141.277,79.992Z" transform="translate(-137.916 -79.979)" fill="#fe75a7"/>
          <path id="Trazado_508681" data-name="Trazado 508681" d="M352.634,221.716c-.026-.151-.058-.3-.092-.446.027.149.056.3.082.448Z" transform="translate(-308.286 -192.872)" fill="#5ed8f6"/>
        </g>
      </g>
      <g id="Grupo_735317" data-name="Grupo 735317" transform="translate(79.89)">
        <ellipse id="Elipse_4821" data-name="Elipse 4821" cx="7.018" cy="6.841" rx="7.018" ry="6.841" transform="translate(0 0)" fill="#ffd500"/>
        <path id="Trazado_508682" data-name="Trazado 508682" d="M413.1,49.137a7.107,7.107,0,0,0-4.124,1.307,6.737,6.737,0,0,1,0,11.067,7.107,7.107,0,0,0,4.124,1.307,6.843,6.843,0,1,0,0-13.681Z" transform="translate(-406.084 -49.137)" fill="#ffc400"/>
      </g>
    </g>
    <g id="Grupo_735319" data-name="Grupo 735319" transform="translate(0.001 0.05)">
      <path id="Trazado_508683" data-name="Trazado 508683" d="M104.048,120.446H41.28l-3.22-19.092a5.552,5.552,0,0,1,5,4.547c.346,2.052,3.358,1.3,3.052-.491-1.235-7.319,9.894-8.611,11.048-1.769.3,1.8,3.4,1.571,3.052-.489-1.135-6.726,9.343-8.745,10.964-2.168.125,2.422,3.581,1.788,3.04-.572A36.1,36.1,0,0,0,59.208,77.2a37.883,37.883,0,0,0-27.64-6.384l-.023,0-.049.007h0l-.1.015h-.005l-.032,0h0C11.005,74.108-2.823,92.891.522,112.718c.326,1.93,3.631,1.483,3.291-.528a5.521,5.521,0,0,1,4.616-6.27,5.754,5.754,0,0,1,6.432,4.5c.32,1.895,3.4,1.562,3.052-.489-1.121-6.644,9.1-8.863,10.925-2.321.6,2.163,3.438,2.38,3.136-.213a5.761,5.761,0,0,1,3.045-5.485l3.126,18.534H1.568a1.508,1.508,0,1,0,0,3.015H38.654l1.6,9.486a41.117,41.117,0,0,0-9.928-5.168,27.419,27.419,0,0,0-16.512-.031A26.743,26.743,0,0,0,.3,136.987a1.483,1.483,0,0,0,.331,2.107,1.573,1.573,0,0,0,2.162-.323,23.631,23.631,0,0,1,11.949-8.148,24.233,24.233,0,0,1,14.589.01c4.8,1.59,9.18,4.738,13.412,7.783,5.966,4.291,12.134,8.728,19.768,9.095q.508.024,1.011.024A36.051,36.051,0,0,0,75.208,145.1a1.5,1.5,0,0,0,.942-1.924,1.557,1.557,0,0,0-1.974-.919c-3.445,1.188-7.459,2.438-11.513,2.244-6.7-.322-12.23-4.3-18.084-8.51l-.806-.579a1.484,1.484,0,0,0-.019-.291L41.788,123.46h62.26a1.508,1.508,0,1,0,0-3.015ZM41.8,99.407a8.908,8.908,0,0,0-10.717,1.7,115.571,115.571,0,0,1-1.061-17.58c.224-7.352,1.545-9.534,1.99-9.727h0c.5.048,2.47,1.71,5.1,8.6a116.423,116.423,0,0,1,4.781,17.049l-.09-.048Zm3.172-.3a118,118,0,0,0-5.137-18.2A35.7,35.7,0,0,0,36.4,73.97c3.541.771,7.1,3.042,10.346,6.665a43.076,43.076,0,0,1,8.72,16.288,8.93,8.93,0,0,0-5.245-.757A8.7,8.7,0,0,0,44.967,99.1Zm24.363-4.548a8.9,8.9,0,0,0-10.563,2.66c-2.933-10.549-8.535-18.938-15.082-23.288A34.643,34.643,0,0,1,57.4,79.649,33.336,33.336,0,0,1,69.331,94.556ZM9.342,102.833a9.223,9.223,0,0,0-6.194,2.522A33.461,33.461,0,0,1,20.665,77.635a28.759,28.759,0,0,0-4.217,7.852c-.666,1.838,2.251,2.842,2.917,1,1.939-5.354,4.955-9.279,8.567-11.29a34.44,34.44,0,0,0-.988,7.738,117.328,117.328,0,0,0,1.118,18.935,8.875,8.875,0,0,0-10.986,1.4,48.381,48.381,0,0,1,.517-9.781c.3-1.926-2.751-2.387-3.057-.46a51.6,51.6,0,0,0-.509,11.145,8.832,8.832,0,0,0-4.685-1.347Z" transform="translate(-0.001 -56.228)" fill="#060606"/>
      <path id="Trazado_508684" data-name="Trazado 508684" d="M396.007,58.333a8.351,8.351,0,1,0-8.564-8.348A8.468,8.468,0,0,0,396.007,58.333Zm0-13.681a5.335,5.335,0,1,1-5.471,5.333A5.41,5.41,0,0,1,396.007,44.652Z" transform="translate(-307.553 -33.279)" fill="#060606"/>
      <path id="Trazado_508685" data-name="Trazado 508685" d="M423.024,6.634a1.527,1.527,0,0,0,1.546-1.507V1.557a1.547,1.547,0,0,0-3.093,0V5.127A1.527,1.527,0,0,0,423.024,6.634Z" transform="translate(-334.57 -0.05)" fill="#060606"/>
      <path id="Trazado_508686" data-name="Trazado 508686" d="M421.478,135.043v3.569a1.547,1.547,0,0,0,3.093,0v-3.569a1.547,1.547,0,0,0-3.093,0Z" transform="translate(-334.57 -106.707)" fill="#060606"/>
      <path id="Trazado_508687" data-name="Trazado 508687" d="M463.941,27.738a1.562,1.562,0,0,0,1.094-.442l2.589-2.524a1.48,1.48,0,0,0,0-2.132,1.575,1.575,0,0,0-2.187,0l-2.589,2.524a1.48,1.48,0,0,0,0,2.132A1.562,1.562,0,0,0,463.941,27.738Z" transform="translate(-367.049 -17.748)" fill="#060606"/>
      <path id="Trazado_508688" data-name="Trazado 508688" d="M371.047,117.03l-2.589,2.524a1.481,1.481,0,0,0,0,2.132,1.575,1.575,0,0,0,2.187,0l2.589-2.524a1.481,1.481,0,0,0,0-2.132A1.575,1.575,0,0,0,371.047,117.03Z" transform="translate(-292.123 -93.165)" fill="#060606"/>
      <path id="Trazado_508689" data-name="Trazado 508689" d="M479.342,77.179a1.527,1.527,0,0,0,1.546,1.507h3.662a1.508,1.508,0,1,0,0-3.015h-3.662A1.527,1.527,0,0,0,479.342,77.179Z" transform="translate(-380.502 -60.473)" fill="#060606"/>
      <path id="Trazado_508690" data-name="Trazado 508690" d="M347.4,78.687h3.662a1.508,1.508,0,1,0,0-3.015H347.4a1.508,1.508,0,1,0,0,3.015Z" transform="translate(-274.541 -60.473)" fill="#060606"/>
      <path id="Trazado_508691" data-name="Trazado 508691" d="M462.847,117.03a1.48,1.48,0,0,0,0,2.132l2.589,2.524a1.575,1.575,0,0,0,2.187,0,1.48,1.48,0,0,0,0-2.132l-2.589-2.524A1.575,1.575,0,0,0,462.847,117.03Z" transform="translate(-367.049 -93.165)" fill="#060606"/>
      <path id="Trazado_508692" data-name="Trazado 508692" d="M371.047,27.3a1.575,1.575,0,0,0,2.187,0,1.48,1.48,0,0,0,0-2.132l-2.589-2.524a1.575,1.575,0,0,0-2.187,0,1.48,1.48,0,0,0,0,2.132Z" transform="translate(-292.123 -17.747)" fill="#060606"/>
      <path id="Trazado_508693" data-name="Trazado 508693" d="M28.609,425.693a1.507,1.507,0,0,0,0,3.015A1.507,1.507,0,0,0,28.609,425.693Z" transform="translate(-21.524 -340.144)" fill="#060606"/>
      <path id="Trazado_508694" data-name="Trazado 508694" d="M132.166,467.558a1.507,1.507,0,0,0,0,3.015A1.507,1.507,0,0,0,132.166,467.558Z" transform="translate(-103.728 -373.595)" fill="#060606"/>
      <path id="Trazado_508695" data-name="Trazado 508695" d="M158.258,410.825a1.507,1.507,0,0,0,0,3.015A1.507,1.507,0,0,0,158.258,410.825Z" transform="translate(-124.44 -328.264)" fill="#060606"/>
      <path id="Trazado_508696" data-name="Trazado 508696" d="M357.025,497.05a1.507,1.507,0,0,0,0,3.015A1.507,1.507,0,0,0,357.025,497.05Z" transform="translate(-282.221 -397.159)" fill="#060606"/>
      <path id="Trazado_508697" data-name="Trazado 508697" d="M445.971,455.342a1.507,1.507,0,0,0,0,3.015A1.507,1.507,0,0,0,445.971,455.342Z" transform="translate(-352.827 -363.834)" fill="#060606"/>
      <path id="Trazado_508698" data-name="Trazado 508698" d="M284.978,386.285a1.508,1.508,0,1,0,0,3.015h11.9a1.508,1.508,0,1,0,0-3.015Z" transform="translate(-224.989 -308.656)" fill="#060606"/>
      <path id="Trazado_508699" data-name="Trazado 508699" d="M356.208,357.124a1.527,1.527,0,0,0-1.546-1.507h-26.6a1.508,1.508,0,1,0,0,3.015h26.6A1.527,1.527,0,0,0,356.208,357.124Z" transform="translate(-259.189 -284.152)" fill="#060606"/>
      <path id="Trazado_508700" data-name="Trazado 508700" d="M423.272,413.225c-5.9-4.826-12.82-6.2-21.158-4.216a1.506,1.506,0,0,0-1.135,1.823,1.549,1.549,0,0,0,1.87,1.106c7.313-1.745,13.343-.568,18.435,3.6a1.575,1.575,0,0,0,2.179-.186A1.481,1.481,0,0,0,423.272,413.225Z" transform="translate(-318.263 -326.111)" fill="#060606"/>
    </g>
  </g>
</svg>
