<svg xmlns="http://www.w3.org/2000/svg" width="106.604" height="106.604" viewBox="0 0 106.604 106.604">
  <g id="Grupo_944292" data-name="Grupo 944292" transform="translate(-333.318 -3571.214)">
    <circle id="Elipse_4885" data-name="Elipse 4885" cx="53.302" cy="53.302" r="53.302" transform="translate(333.318 3571.214)" fill="#ffb22a"/>
    <path id="paquete_1_" data-name="paquete(1)" d="M54.619,35.441A3.53,3.53,0,0,0,52.68,33.4V8.668A2.676,2.676,0,0,0,50.012,6H21.549A2.676,2.676,0,0,0,18.88,8.668V33.6A18.024,18.024,0,0,0,16,35.246L13.206,37.2l-1.023-1.459a.9.9,0,0,0-1.236-.222L2.2,41.641a.9.9,0,0,0-.222,1.245L11.169,56a.889.889,0,0,0,1.236.222l8.743-6.12a.906.906,0,0,0,.222-1.245l-.507-.72a7.916,7.916,0,0,1,5.87-1.254l1.583.267a11.563,11.563,0,0,0,5.968-.516L52.493,40a3.558,3.558,0,0,0,2.126-4.563ZM40.227,7.779h9.784a.889.889,0,0,1,.889.889v2.668H40.227Zm-7.116,0h5.337v7.64l-2.037-2.046a.9.9,0,0,0-1.263,0l-2.037,2.046Zm-12.452.889a.889.889,0,0,1,.889-.889h9.784v3.558H20.659Zm0,4.447H31.333v4.447a.878.878,0,0,0,.551.818.889.889,0,0,0,.97-.187l2.926-2.935,2.926,2.935a.9.9,0,0,0,.632.258.745.745,0,0,0,.338-.071.878.878,0,0,0,.551-.818V13.116H50.9V33.138a3.422,3.422,0,0,0-.836.178l-3.149,1.147H40.663a3.445,3.445,0,0,0-1.646-.774l-8.939-1.574a18.673,18.673,0,0,0-8.663.516l-.16.053c-.2.053-.4.133-.6.2ZM12.111,54.253,3.955,42.593l7.285-5.106L19.4,49.148ZM53.036,36.971a1.779,1.779,0,0,1-1.147,1.361L33.681,44.958a9.773,9.773,0,0,1-5.052.436l-1.592-.267a9.68,9.68,0,0,0-7.2,1.548l-5.613-8.023L17.021,36.7a16.544,16.544,0,0,1,4.723-2.313l.16-.044a17.117,17.117,0,0,1,7.872-.489l8.93,1.574a1.822,1.822,0,0,1,1.156.738,1.789,1.789,0,0,1,.294.765,1.573,1.573,0,0,1-.044.747,1.787,1.787,0,0,1-2.037,1.263l-9.615-1.7-.3,1.743,9.606,1.7a3.041,3.041,0,0,0,.632.062,3.573,3.573,0,0,0,3.416-2.535l8.859-3.229a1.779,1.779,0,0,1,2.277,1.067,1.69,1.69,0,0,1,.089.916Z" transform="translate(355.461 3597.205)"/>
  </g>
</svg>
