<svg xmlns="http://www.w3.org/2000/svg" width="106.604" height="106.604" viewBox="0 0 106.604 106.604">
  <g id="Grupo_944293" data-name="Grupo 944293" transform="translate(-331 -3753.791)">
    <circle id="Elipse_4883" data-name="Elipse 4883" cx="53.302" cy="53.302" r="53.302" transform="translate(331 3753.791)" fill="#ffb22a"/>
    <path id="Trazado_638696" data-name="Trazado 638696" d="M10.1,5.552A2.552,2.552,0,1,0,7.552,8.1,2.552,2.552,0,0,0,10.1,5.552Zm-3.4,0a.851.851,0,1,1,.851.851A.851.851,0,0,1,6.7,5.552Z" transform="translate(356.033 3779.417)"/>
    <path id="Trazado_638697" data-name="Trazado 638697" d="M30.7,9.235v.123a.851.851,0,1,0,1.7,0V9.235a2.419,2.419,0,0,0,.359-4.477L31.1,3.929a.727.727,0,0,1,.325-1.377h.248a.728.728,0,0,1,.727.727V3.4a.851.851,0,0,0,1.7,0V3.279A2.423,2.423,0,0,0,32.4.974V.851a.851.851,0,1,0-1.7,0V.974a2.419,2.419,0,0,0-.359,4.477L32,6.28a.727.727,0,0,1-.325,1.377h-.248A.728.728,0,0,1,30.7,6.93V6.806a.851.851,0,1,0-1.7,0V6.93a2.423,2.423,0,0,0,1.7,2.305Z" transform="translate(352.451 3779.865)"/>
    <path id="Trazado_638698" data-name="Trazado 638698" d="M32.4,52.974v-.123a.851.851,0,0,0-1.7,0v.123a2.419,2.419,0,0,0-.359,4.477L32,58.28a.727.727,0,0,1-.325,1.377h-.248a.728.728,0,0,1-.727-.727v-.124a.851.851,0,0,0-1.7,0v.124a2.423,2.423,0,0,0,1.7,2.305v.123a.851.851,0,0,0,1.7,0v-.123a2.419,2.419,0,0,0,.359-4.477L31.1,55.929a.727.727,0,0,1,.325-1.377h.248a.728.728,0,0,1,.727.727V55.4a.851.851,0,1,0,1.7,0v-.124A2.423,2.423,0,0,0,32.4,52.974Z" transform="translate(352.451 3772.104)"/>
    <path id="Trazado_638699" data-name="Trazado 638699" d="M58.254,30.254A.851.851,0,0,0,59.1,29.4v-.124a2.423,2.423,0,0,0-1.7-2.305v-.123a.851.851,0,1,0-1.7,0v.123a2.419,2.419,0,0,0-.359,4.477L57,32.28a.727.727,0,0,1-.325,1.377h-.248a.728.728,0,0,1-.727-.727v-.124a.851.851,0,1,0-1.7,0v.124a2.423,2.423,0,0,0,1.7,2.305v.123a.851.851,0,0,0,1.7,0v-.123a2.419,2.419,0,0,0,.359-4.477L56.1,29.929a.727.727,0,0,1,.325-1.377h.248a.728.728,0,0,1,.727.727V29.4A.851.851,0,0,0,58.254,30.254Z" transform="translate(348.72 3775.984)"/>
    <path id="Trazado_638700" data-name="Trazado 638700" d="M4.851,31.955A.851.851,0,0,0,4,32.806v.124a2.423,2.423,0,0,0,1.7,2.305v.123a.851.851,0,1,0,1.7,0v-.123a2.419,2.419,0,0,0,.359-4.477L6.1,29.929a.727.727,0,0,1,.325-1.377h.248a.728.728,0,0,1,.727.727V29.4a.851.851,0,1,0,1.7,0v-.124a2.423,2.423,0,0,0-1.7-2.305v-.123a.851.851,0,1,0-1.7,0v.123a2.419,2.419,0,0,0-.359,4.477L7,32.28a.727.727,0,0,1-.325,1.377H6.428A.728.728,0,0,1,5.7,32.93v-.124A.851.851,0,0,0,4.851,31.955Z" transform="translate(356.183 3775.984)"/>
    <path id="Trazado_638701" data-name="Trazado 638701" d="M31.625,20.275a.851.851,0,0,0-.724-.511.875.875,0,0,0-.786.41l-2.343,3.89-5.4,2.337a4.749,4.749,0,0,0,1.177,9.081l3.281,4.736a.852.852,0,0,0,1.038.3l3.082-1.333a.851.851,0,0,0,.361-1.265L30.254,36.39a2.533,2.533,0,0,0,.882-3.336l-.022-.041.446-.193,4.44.955a.812.812,0,0,0,.179.019.851.851,0,0,0,.781-1.189ZM21.449,32a3.068,3.068,0,0,1,1.6-4.034l4.869-2.107,2.436,5.631-4.87,2.106a3.159,3.159,0,0,1-2.347.037A3.047,3.047,0,0,1,21.449,32Zm6.382,6.679-2.289-3.3a5.838,5.838,0,0,0,.615-.218l.9-.39,2.262,3.266Zm1.8-4.825a.84.84,0,0,1,.051.68.831.831,0,0,1-.4.455l-.63-.909.895-.387Zm2.446-2.66L29.314,24.8l1.406-2.333,4.021,9.294Z" transform="translate(353.875 3776.915)"/>
    <path id="Trazado_638702" data-name="Trazado 638702" d="M37.46,26.919a.852.852,0,0,0,1.119.442l3.082-1.334a.851.851,0,0,0-.676-1.562L37.9,25.8a.852.852,0,0,0-.443,1.12Z" transform="translate(351.199 3776.224)"/>
    <path id="Trazado_638703" data-name="Trazado 638703" d="M37.627,23.826l1.9-2.653a.851.851,0,0,0-1.382-.992l-1.9,2.653a.851.851,0,1,0,1.382.992Z" transform="translate(351.394 3776.906)"/>
    <path id="Trazado_638704" data-name="Trazado 638704" d="M38.7,29.721a.85.85,0,0,0,.731.955l3.235.43a.863.863,0,0,0,.113.007A.851.851,0,0,0,42.9,29.42l-3.235-.43a.851.851,0,0,0-.955.731Z" transform="translate(351.004 3775.54)"/>
    <path id="Trazado_638705" data-name="Trazado 638705" d="M55.552,8.1A2.552,2.552,0,1,0,53,5.552,2.552,2.552,0,0,0,55.552,8.1Zm0-3.4a.851.851,0,1,1-.851.851.851.851,0,0,1,.851-.851Z" transform="translate(348.87 3779.417)"/>
    <path id="Trazado_638706" data-name="Trazado 638706" d="M7.552,51A2.552,2.552,0,1,0,10.1,53.552,2.552,2.552,0,0,0,7.552,51Zm0,3.4a.851.851,0,1,1,.851-.851.851.851,0,0,1-.851.851Z" transform="translate(356.033 3772.253)"/>
    <path id="Trazado_638707" data-name="Trazado 638707" d="M47.629,40.823a6.765,6.765,0,0,0-4.193,1.456L38.59,37.432a15.244,15.244,0,0,0,.022-20.419l4.853-4.853A6.738,6.738,0,0,0,47.629,13.6a6.84,6.84,0,1,0-5.367-2.642L37.409,15.81A15.189,15.189,0,0,0,27.236,11.9h-.025a15.192,15.192,0,0,0-10.2,3.913l-4.855-4.855a6.845,6.845,0,1,0-1.2,1.2l4.855,4.855a15.245,15.245,0,0,0,.022,20.419l-4.847,4.847a6.841,6.841,0,1,0,1.2,1.21l4.855-4.855a15.189,15.189,0,0,0,10.149,3.891h.025a15.192,15.192,0,0,0,10.174-3.891l4.855,4.855a6.8,6.8,0,1,0,5.389-2.666Zm0-28.945a5.01,5.01,0,0,1-2.674-.745,4.371,4.371,0,0,1,5.348,0,5,5,0,0,1-2.674.745Zm0-10.189A5.1,5.1,0,0,1,51.6,10a5.984,5.984,0,0,0-7.934,0,5.1,5.1,0,0,1,3.967-8.31ZM1.688,6.793A5.1,5.1,0,1,1,10.76,10a6.11,6.11,0,0,0-3.967-1.5A6.11,6.11,0,0,0,2.825,10,5.078,5.078,0,0,1,1.688,6.793Zm5.1,5.085a5.01,5.01,0,0,1-2.674-.745,4.371,4.371,0,0,1,5.348,0,5,5,0,0,1-2.674.745Zm0,40.836a5.01,5.01,0,0,1-2.674-.745,4.371,4.371,0,0,1,5.348,0,5,5,0,0,1-2.674.745Zm3.967-1.879a6.11,6.11,0,0,0-3.967-1.5,6.11,6.11,0,0,0-3.967,1.5,5.1,5.1,0,1,1,7.934,0ZM27.189,40.823A13.612,13.612,0,0,1,27.211,13.6h.022a13.612,13.612,0,0,1-.022,27.224Zm20.44,11.891a5.01,5.01,0,0,1-2.674-.745,4.371,4.371,0,0,1,5.348,0,5,5,0,0,1-2.674.745ZM51.6,50.834a5.984,5.984,0,0,0-7.934,0,5.1,5.1,0,1,1,7.934,0Z" transform="translate(356.793 3779.878)"/>
    <path id="Trazado_638708" data-name="Trazado 638708" d="M55.552,51A2.552,2.552,0,1,0,58.1,53.552,2.552,2.552,0,0,0,55.552,51Zm0,3.4a.851.851,0,1,1,.851-.851.851.851,0,0,1-.851.851Z" transform="translate(348.87 3772.253)"/>
  </g>
</svg>
